<svg aria-hidden="true" style="position: absolute; width: 0; height: 0; overflow: hidden;" version="1.1" xmlns="http://www.w3.org/2000/svg" xmlns:xlink="http://www.w3.org/1999/xlink">
<defs>
<symbol id="icon-fantasy" viewBox="0 0 32 32">
<path fill="#96a5b8" style="fill: #96a5b8" d="M12.947 18.016c0.085 0 0.171 0.015 0.252 0.046l3.469 1.383-0.875 1.141c-0.272 0.273-0.272 0.716 0 0.989 0.137 0.137 0.316 0.205 0.495 0.205s0.358-0.068 0.495-0.205l1.315-1.58 1.428 0.55-0.875 1.142c-0.273 0.273-0.273 0.716 0 0.989 0.137 0.137 0.316 0.205 0.495 0.205s0.358-0.068 0.495-0.205l1.315-1.581 1.428 0.55-0.875 1.142c-0.273 0.273-0.273 0.716 0 0.989 0.137 0.137 0.316 0.205 0.495 0.205s0.358-0.068 0.495-0.205l1.315-1.581 2.725 1.032c0.889 0.442 1.404 1.274 1.404 2.199 0 1.339-1.136 2.429-2.476 2.429h-0.369v0.473c0 0.386-0.313 0.699-0.7 0.699s-0.7-0.313-0.7-0.699v-0.473c-0.498 0-0.977-0.027-1.441-0.076l-1.356-0.004v0.552c0 0.386-0.314 0.699-0.7 0.699s-0.7-0.313-0.7-0.699v-0.556l-2.798-0.007v0.563c0 0.386-0.313 0.699-0.7 0.699s-0.7-0.313-0.7-0.699v-0.473h-2.799v0.473c0 0.386-0.313 0.699-0.7 0.699s-0.7-0.313-0.7-0.699v-0.473h-2.796v0.473c0 0.386-0.313 0.699-0.7 0.699s-0.7-0.313-0.7-0.699v-0.473h-0.7c-0.186 0-0.411-0.074-0.541-0.205-0.713-0.712-1.197-1.621-1.433-2.593-0.206-0.667-0.171-1.399-0.171-1.399v-0.237c0-1.335 0.34-2.659 0.985-3.83 0.113-0.206 0.322-0.341 0.556-0.36 0.021-0.002 0.041-0.003 0.063-0.003 0.218 0 0.46 0.101 0.591 0.27 0.674 0.865 1.676 1.362 2.748 1.362 1.466 0 2.784-0.984 3.28-2.379 0.063-0.178 0.196-0.322 0.367-0.401 0.093-0.043 0.193-0.064 0.292-0.064zM12.947 16.62c0 0 0 0 0 0s0 0 0 0c-0.304 0-0.598 0.064-0.874 0.19-0.512 0.236-0.912 0.673-1.1 1.201-0.304 0.855-1.112 1.452-1.965 1.452-0.639 0-1.239-0.3-1.647-0.824-0.387-0.498-1.036-0.808-1.692-0.808-0.065 0-0.129 0.003-0.193 0.009-0.686 0.056-1.308 0.459-1.648 1.076-0.758 1.377-1.158 2.934-1.158 4.504v0.211c-0.007 0.204-0.015 1.004 0.22 1.794 0.308 1.236 0.927 2.345 1.793 3.211 0.266 0.268 0.627 0.462 1.017 0.554 0.329 0.726 1.061 1.232 1.909 1.232 0.824 0 1.539-0.479 1.881-1.172h0.434c0.342 0.694 1.057 1.172 1.881 1.172s1.539-0.479 1.881-1.172h0.435c0.342 0.694 1.057 1.172 1.881 1.172 0.858 0 1.598-0.519 1.921-1.259l0.355 0.001c0.324 0.74 1.063 1.258 1.921 1.258 0.854 0 1.591-0.514 1.916-1.249l0.066 0c0.103 0.010 0.206 0.020 0.31 0.028 0.332 0.72 1.060 1.22 1.904 1.22 0.861 0 1.603-0.522 1.924-1.267 1.724-0.386 3.015-1.912 3.015-3.73 0-1.46-0.835-2.782-2.178-3.449l-0.062-0.031-2.855-1.081-6.575-2.532-0.004 0.005-3.944-1.572c-0.262-0.099-0.513-0.145-0.768-0.145v0 0z"></path>
<path fill="#96a5b8" style="fill: var(--color1, #96a5b8)" d="M19.053 2.974c0.1 0 0.199 0.021 0.293 0.064 0.171 0.079 0.303 0.223 0.367 0.401 0.497 1.395 1.814 2.379 3.28 2.379 1.072 0 2.073-0.497 2.748-1.362 0.132-0.169 0.373-0.27 0.591-0.27 0.021 0 0.042 0.001 0.063 0.003 0.234 0.019 0.443 0.154 0.556 0.36 0.644 1.171 0.985 2.495 0.985 3.83v0.237c0 0 0.035 0.732-0.171 1.399-0.236 0.972-0.721 1.88-1.433 2.593-0.13 0.131-0.354 0.205-0.541 0.205h-0.7v0.473c0 0.387-0.313 0.699-0.7 0.699s-0.7-0.313-0.7-0.699v-0.472h-2.797v0.473c0 0.387-0.313 0.699-0.7 0.699s-0.7-0.313-0.7-0.699v-0.473h-2.798v0.473c0 0.387-0.313 0.699-0.7 0.699s-0.7-0.313-0.7-0.699v-0.563l-2.798 0.007v0.556c0 0.387-0.313 0.699-0.7 0.699-0.385 0-0.7-0.313-0.7-0.699v-0.552l-1.356 0.004c-0.464 0.049-0.943 0.076-1.441 0.076v0.473c0 0.387-0.313 0.699-0.7 0.699s-0.7-0.313-0.7-0.699v-0.473h-0.369c-1.339 0-2.476-1.089-2.476-2.429 0-0.925 0.515-1.757 1.404-2.199l2.725-1.032 1.315 1.581c0.137 0.137 0.316 0.205 0.495 0.205s0.358-0.068 0.495-0.205c0.273-0.273 0.273-0.716 0-0.989l-0.875-1.142 1.428-0.55 1.315 1.581c0.137 0.137 0.316 0.205 0.495 0.205s0.358-0.068 0.495-0.205c0.273-0.273 0.273-0.716 0-0.989l-0.875-1.142 1.428-0.55 1.315 1.58c0.137 0.137 0.316 0.205 0.495 0.205s0.358-0.068 0.495-0.205c0.272-0.273 0.272-0.716 0-0.989l-0.875-1.141 3.469-1.383c0.081-0.031 0.167-0.046 0.252-0.046zM19.053 1.578c-0.255 0-0.506 0.046-0.745 0.136l-3.967 1.581-0.004-0.005-6.64 2.557-2.79 1.056-0.062 0.031c-1.343 0.668-2.178 1.989-2.178 3.449 0 1.818 1.291 3.344 3.015 3.73 0.322 0.744 1.063 1.267 1.924 1.267 0.843 0 1.572-0.501 1.904-1.22 0.103-0.008 0.206-0.017 0.309-0.028l0.066-0c0.326 0.735 1.062 1.249 1.916 1.249 0.858 0 1.597-0.518 1.921-1.258l0.355-0.001c0.324 0.74 1.063 1.259 1.921 1.259 0.824 0 1.539-0.479 1.881-1.172h0.435c0.342 0.694 1.057 1.172 1.881 1.172s1.539-0.479 1.881-1.172h0.434c0.342 0.694 1.057 1.172 1.881 1.172 0.848 0 1.58-0.506 1.909-1.232 0.391-0.092 0.752-0.287 1.021-0.558 0.862-0.862 1.482-1.972 1.789-3.207 0.235-0.79 0.227-1.59 0.22-1.794v-0.211c0-1.57-0.4-3.127-1.158-4.503-0.341-0.618-0.963-1.020-1.665-1.078-0.048-0.004-0.112-0.008-0.177-0.008-0.657 0-1.305 0.31-1.694 0.809-0.407 0.523-1.008 0.823-1.646 0.823-0.853 0-1.661-0.597-1.965-1.451-0.188-0.529-0.589-0.967-1.098-1.201-0.278-0.127-0.572-0.191-0.876-0.191v0z"></path>
</symbol>
<symbol id="icon-svg-gobbler_0" viewBox="0 0 32 32">
<path fill="#96a5b8" d="M16.006-0.003c-8.851 0-16.026 7.174-16.026 16.026 0 8.848 7.174 16.024 16.026 16.024 8.85 0 16.024-7.174 16.024-16.024 0-8.851-7.174-16.026-16.024-16.026zM25.938 11.784l1.035-3.344c1.339 1.919 2.189 4.268 2.325 6.807l0.001 0.033-2.856-2.013c-0.344-0.244-0.565-0.641-0.565-1.089 0-0.141 0.022-0.276 0.062-0.403l-0.003 0.009zM19.469 3.136h-0.011l-2.667 1.941c-0.217 0.159-0.489 0.255-0.784 0.255s-0.567-0.096-0.788-0.258l0.004 0.003-2.666-1.939c1.036-0.299 2.226-0.471 3.456-0.471s2.42 0.172 3.547 0.493l-0.091-0.022zM5.030 8.44l1.035 3.344c0.038 0.118 0.059 0.253 0.059 0.394 0 0.448-0.221 0.845-0.561 1.087l-0.004 0.003-2.856 2.013c0.137-2.572 0.987-4.921 2.355-6.883l-0.029 0.043zM5.344 23.979l3.664 0.011c0.576 0 1.088 0.374 1.266 0.925l1.152 3.592c-2.48-0.93-4.543-2.493-6.056-4.494l-0.024-0.034zM20.579 28.507l1.15-3.592c0.177-0.54 0.676-0.923 1.264-0.925l3.664-0.011c-1.537 2.036-3.6 3.599-5.988 4.498l-0.092 0.030zM28.227 21.307l-5.24 0.016c-1.769 0.002-3.268 1.155-3.789 2.751l-0.008 0.028-1.646 5.133c-0.463 0.062-0.999 0.097-1.542 0.097s-1.079-0.035-1.604-0.104l0.062 0.007-1.648-5.134c-0.529-1.623-2.028-2.776-3.797-2.778h-0l-5.238-0.016c-0.372-0.833-0.677-1.806-0.866-2.819l-0.013-0.082 4.198-2.96c1.031-0.731 1.696-1.92 1.696-3.264 0-0.423-0.066-0.83-0.187-1.212l0.008 0.028-1.512-4.896c0.735-0.671 1.559-1.267 2.445-1.765l0.067-0.035 4.035 2.933c0.65 0.479 1.468 0.767 2.352 0.767s1.702-0.288 2.363-0.775l-0.011 0.008 4.037-2.933c0.904 0.501 1.747 1.104 2.512 1.798l-1.514 4.896c-0.114 0.354-0.18 0.762-0.18 1.185 0 1.345 0.666 2.535 1.686 3.257l0.012 0.008 4.198 2.96c-0.202 1.094-0.507 2.066-0.913 2.983l0.033-0.084z"></path>
<path fill="#96a5b8" d="M20.512 12.298l-2.555-1.856c-0.542-0.399-1.222-0.639-1.958-0.639s-1.417 0.24-1.968 0.645l0.009-0.006-2.557 1.856c-0.838 0.611-1.377 1.59-1.377 2.694 0 0.372 0.061 0.73 0.174 1.064l-0.007-0.023 0.976 3.003c0.447 1.345 1.693 2.298 3.162 2.298 0.002 0 0.004 0 0.006 0h3.161c1.443 0 2.723-0.93 3.17-2.304l0.976-3.005c0.104-0.309 0.165-0.664 0.165-1.033 0-1.104-0.538-2.082-1.367-2.686l-0.009-0.007zM19.189 15.2l-0.974 3.005c-0.090 0.27-0.34 0.461-0.634 0.461-0 0-0 0-0.001 0h-3.162c-0.294-0.001-0.543-0.192-0.631-0.456l-0.001-0.005-0.976-3.005c-0.021-0.062-0.033-0.133-0.033-0.208 0-0.221 0.107-0.417 0.273-0.538l0.002-0.001 2.555-1.853c0.108-0.080 0.245-0.127 0.392-0.127s0.284 0.048 0.394 0.129l-0.002-0.001 2.557 1.856c0.166 0.123 0.273 0.318 0.273 0.538 0 0.074-0.012 0.144-0.034 0.211l0.001-0.005z"></path>
</symbol>
<symbol id="icon-svg-gobbler_1" viewBox="0 0 49 32">
<path fill="none" stroke="#96a5b8" style="stroke: var(--color1, #96a5b8)" stroke-linejoin="round" stroke-linecap="round" stroke-miterlimit="10" stroke-width="2.4615" d="M21.538 13.797v-1.44c0-1.863 1.221-2.614 2.715-1.689l1.159 0.721 1.157 0.724c1.494 0.926 1.494 2.449 0 3.375l-1.157 0.724-1.157 0.721c-1.497 0.926-2.718 0.165-2.718-1.689v-1.445z"></path>
<path fill="#96a5b8" style="fill: var(--color1, #96a5b8)" d="M39.902 1.893c0-1.511 1.583-2.462 2.759-1.514 3.975 3.195 6.57 8.455 6.57 14.4 0 5.95-2.594 11.21-6.57 14.405-1.177 0.948-2.757-0.005-2.757-1.514 0-0.652 0.32-1.258 0.812-1.684 2.86-2.469 4.822-6.432 4.822-11.205 0-4.775-1.964-8.738-4.82-11.205-0.488-0.404-0.8-1.005-0.817-1.678l-0-0.003z"></path>
<path fill="#96a5b8" style="fill: var(--color1, #96a5b8)" d="M33.846 7.646c0-1.642 1.716-2.639 2.843-1.447 1.977 2.092 3.215 5.071 3.215 8.382 0 3.308-1.238 6.289-3.215 8.379-1.127 1.191-2.843 0.197-2.843-1.445 0-0.598 0.256-1.159 0.625-1.627 1.049-1.327 1.74-3.136 1.74-5.307s-0.689-3.983-1.74-5.307c-0.371-0.438-0.604-1.003-0.625-1.623l-0-0.004zM9.329 1.893c0-1.511-1.583-2.462-2.762-1.514-3.973 3.195-6.567 8.455-6.567 14.4 0 5.95 2.594 11.21 6.567 14.405 1.179 0.948 2.759-0.005 2.759-1.514-0.015-0.677-0.326-1.278-0.809-1.681l-0.004-0.003c-2.86-2.469-4.822-6.432-4.822-11.205 0-4.775 1.964-8.738 4.82-11.205 0.488-0.405 0.8-1.006 0.815-1.681l0-0.002z"></path>
<path fill="#96a5b8" style="fill: var(--color1, #96a5b8)" d="M15.385 7.646c0-1.642-1.716-2.639-2.843-1.447-1.977 2.092-3.215 5.071-3.215 8.382 0 3.308 1.238 6.289 3.215 8.379 1.127 1.191 2.843 0.197 2.843-1.445-0.021-0.624-0.254-1.189-0.628-1.631l0.003 0.004c-1.049-1.327-1.74-3.136-1.74-5.307s0.689-3.983 1.74-5.307c0.369-0.468 0.625-1.031 0.625-1.627z"></path>
</symbol>
<symbol id="icon-svg-gobbler_2" viewBox="0 0 32 32">
<path fill="#96a5b8" style="fill: var(--color1, #96a5b8)" d="M25.346 31.998h-6.672c-3.681-0.005-6.664-2.988-6.67-6.669v-6.672c0.005-3.682 2.988-6.666 6.669-6.672h6.672c3.683 0.005 6.667 2.989 6.672 6.671v6.672c-0.005 3.682-2.989 6.666-6.671 6.67h-0zM18.675 14.654c-2.211 0-4.003 1.792-4.003 4.003v0 6.672c0 2.211 1.792 4.003 4.003 4.003v0h6.672c2.211 0 4.003-1.792 4.003-4.003v0-6.672c0-2.211-1.792-4.003-4.003-4.003v0h-6.672zM18.675 17.323c-0.014-0-0.030-0.001-0.046-0.001-0.737 0-1.334 0.597-1.334 1.334s0.597 1.334 1.334 1.334c0.016 0 0.032-0 0.049-0.001l-0.002 0c0.716-0.026 1.287-0.613 1.287-1.333s-0.571-1.307-1.285-1.333l-0.002-0zM25.346 23.993c-0.737 0-1.334 0.597-1.334 1.334s0.597 1.334 1.334 1.334v0c0.737 0 1.334-0.597 1.334-1.334s-0.597-1.334-1.334-1.334v0zM12.005 9.318c0.737 0 1.334-0.597 1.334-1.334s-0.597-1.334-1.334-1.334v0c-0.737 0-1.334 0.597-1.334 1.334s0.597 1.334 1.334 1.334v0zM9.336 11.985c0-0.737-0.597-1.334-1.334-1.334s-1.334 0.597-1.334 1.334v0c0 0.737 0.597 1.334 1.334 1.334s1.334-0.597 1.334-1.334v0zM9.043 21.094c0.182-0.226 0.292-0.517 0.292-0.834 0-0.42-0.194-0.794-0.496-1.039l-0.003-0.002c-0.121-0.099-0.231-0.199-0.334-0.304l-0-0-4.685-4.749c-0.712-0.723-1.151-1.716-1.151-2.811 0-1.115 0.455-2.123 1.189-2.85l0-0 4.752-4.685c0.718-0.712 1.707-1.153 2.799-1.153 0.004 0 0.007 0 0.011 0h0.028c1.106 0.005 2.104 0.46 2.822 1.192l0.001 0.001 4.675 4.744c0.075 0.077 0.147 0.155 0.218 0.24 0.247 0.293 0.614 0.478 1.025 0.478 0.739 0 1.338-0.599 1.338-1.338 0-0.328-0.118-0.629-0.315-0.862l0.002 0.002c-0.118-0.142-0.234-0.269-0.355-0.391l0.001 0.001-4.688-4.747c-1.21-1.227-2.892-1.987-4.75-1.987-1.826 0-3.481 0.734-4.685 1.922l0.001-0.001-4.752 4.685c-1.224 1.211-1.982 2.892-1.982 4.749 0 1.825 0.732 3.48 1.918 4.685l-0.001-0.001 4.683 4.752c0.179 0.181 0.368 0.352 0.565 0.509 0.227 0.183 0.518 0.294 0.836 0.294 0.42 0 0.794-0.194 1.039-0.497l0.002-0.003v-0.002z"></path>
</symbol>
<symbol id="icon-svg-gobbler_3" viewBox="0 0 49 32">
<path fill="#6a7786" style="fill: var(--color2, #6a7786)" d="M40.812 26.172c1.052 0 1.902-0.849 1.902-1.902v-8.905l-3.803 2.652v6.252c0 1.046 0.849 1.902 1.902 1.902zM48.794 9.668c0-0.849-0.689-1.545-1.545-1.545h-11.028l-2.443 3.083h5.138v2.511l3.803 0.529v-3.046h4.535c0.843 0.012 1.538-0.683 1.538-1.532zM24.375 19.046l-4.209-0.738 0.425 1.065h-5.151l2.572-6.425 1.058 2.634 2.88-2.271-1.348-3.194c-0.402-0.937-1.316-1.582-2.382-1.582h-2.135l-6.517 15.465c-0.517 1.225 0.382 2.585 1.711 2.585 0.757 0 1.44-0.462 1.723-1.169l1.292-3.218h7.422l0.622 1.551 2.683-3.126-0.646-1.575zM10.615 15.803h-6.812c0-0.942 0.142-1.711 0.431-2.295 0.283-0.585 0.652-1.040 1.089-1.36 0.42-0.302 0.919-0.525 1.458-0.636l0.025-0.004c0.548-0.111 1.095-0.166 1.637-0.166h4.412l1.317-3.083h-6.474c-1.471 0-2.695 0.215-3.686 0.652-0.991 0.431-1.785 1.034-2.375 1.797-0.597 0.763-1.015 1.68-1.268 2.738-0.246 1.058-0.369 2.222-0.369 3.489v7.471c0 1.052 0.849 1.902 1.902 1.902s1.902-0.849 1.902-1.902v-5.637h5.458l1.354-2.966z"></path>
<path fill="#6a7786" style="fill: var(--color2, #6a7786)" d="M17.298 31.594l11.138-12.972-9.274-1.625 21.594-16.997-10.911 13.766 10.849 1.514-23.397 16.314zM21.858 16.32l8.738 1.532-6.615 7.705 13.698-9.551-9.951-1.391 6.148-7.76-12.018 9.465z"></path>
</symbol>
<symbol id="icon-svg-gobbler_4" viewBox="0 0 32 32">
<path fill="#96a5b8" style="fill: var(--color1, #96a5b8); stroke: var(--color1, #96a5b8)" stroke="#96a5b8" stroke-linejoin="miter" stroke-linecap="butt" stroke-miterlimit="4" stroke-width="0.4364" d="M20.781 18.433c-0.324-0.32-0.769-0.518-1.26-0.518-0.299 0-0.581 0.073-0.828 0.203l0.010-0.005-0.673-0.669c0.262-0.384 0.418-0.858 0.418-1.369s-0.156-0.985-0.423-1.377l0.005 0.008 0.761-0.756c0.265 0.145 0.557 0.204 0.849 0.204 0.998-0.002 1.807-0.807 1.815-1.803v-0.001c0-0.989-0.82-1.805-1.815-1.805-0.998 0.002-1.807 0.807-1.815 1.803v0.001c0 0.291 0.087 0.582 0.205 0.844l-0.761 0.758c-0.387-0.26-0.863-0.415-1.376-0.415s-0.989 0.155-1.385 0.42l0.009-0.006-0.644-0.611c0.381-0.669 0.234-1.513-0.321-2.065-0.319-0.317-0.759-0.513-1.244-0.513s-0.925 0.196-1.244 0.513l0-0c-0.318 0.316-0.515 0.753-0.515 1.236s0.197 0.921 0.515 1.236l0 0c0.41 0.407 1.024 0.611 1.61 0.465 0.176-0.030 0.334-0.091 0.474-0.178l-0.006 0.003 0.673 0.669c-0.262 0.384-0.418 0.858-0.418 1.368s0.156 0.984 0.423 1.377l-0.005-0.009-0.673 0.698c-0.673-0.378-1.523-0.233-2.080 0.32-0.672 0.7-0.672 1.807 0 2.476 0.675 0.669 1.788 0.669 2.49 0 0.556-0.553 0.673-1.396 0.321-2.067l0.673-0.669c0.819 0.553 1.903 0.553 2.752 0l0.673 0.669c-0.468 0.844-0.145 1.92 0.732 2.385 0.673 0.351 1.523 0.233 2.080-0.32 0.312-0.324 0.504-0.765 0.504-1.251s-0.192-0.927-0.505-1.251l0.001 0.001zM19.639 11.651c0.434 0 0.786 0.352 0.786 0.786s-0.352 0.786-0.786 0.786v0c-0.434 0-0.785-0.352-0.785-0.785s0.352-0.785 0.785-0.785v0zM12.467 13.252c-0.047 0.011-0.101 0.017-0.157 0.017-0.349 0-0.641-0.24-0.72-0.564l-0.001-0.005c-0.087-0.378 0.175-0.785 0.557-0.873 0.047-0.011 0.101-0.017 0.156-0.017 0.348 0 0.641 0.24 0.72 0.564l0.001 0.005c0.116 0.378-0.145 0.785-0.556 0.873zM12.848 20.208c-0.294 0.291-0.762 0.291-1.055 0-0.135-0.133-0.219-0.319-0.219-0.524s0.084-0.39 0.219-0.524l0-0c0.292-0.291 0.732-0.291 1.024 0 0.323 0.262 0.323 0.756 0.029 1.047zM14.428 16.076c0.029-0.785 0.703-1.455 1.494-1.455 0.819 0 1.492 0.669 1.492 1.484 0 0.785-0.643 1.484-1.492 1.484s-1.494-0.698-1.494-1.513zM19.523 20.413c-0.003 0-0.007 0-0.010 0-0.399 0-0.723-0.324-0.723-0.723 0-0.002 0-0.003 0-0.005v0c0-0.407 0.323-0.729 0.733-0.729 0.409 0 0.732 0.32 0.732 0.727s-0.323 0.727-0.732 0.727z"></path>
<path fill="#96a5b8" style="fill: var(--color1, #96a5b8)" d="M23.728 16c0 0.753-0.611 1.363-1.364 1.363s-1.364-0.61-1.364-1.363c0-0.753 0.611-1.363 1.364-1.363s1.364 0.61 1.364 1.363z"></path>
<path fill="#96a5b8" style="fill: var(--color1, #96a5b8); stroke: var(--color1, #96a5b8)" stroke="#96a5b8" stroke-linejoin="miter" stroke-linecap="butt" stroke-miterlimit="4" stroke-width="0.7273" d="M30.545 16c0-7.99-6.484-14.473-14.438-14.545-8.061-0.036-14.653 6.484-14.653 14.545 0 8.025 6.556 14.545 14.545 14.545s14.545-6.521 14.545-14.545zM11.020 25.852c1.261 0.65 2.74 1.065 4.308 1.147l0.027 0.001v2.256c-2.017-0.084-3.892-0.617-5.55-1.503l0.069 0.034 1.146-1.935zM16.644 26.999c1.594-0.083 3.074-0.497 4.396-1.176l-0.061 0.028 1.148 1.971c-1.577 0.856-3.441 1.391-5.422 1.468l-0.024 0.001-0.036-2.292zM16 25.78c-0.003 0-0.007 0-0.010 0-5.396 0-9.77-4.374-9.77-9.77 0-0.004 0-0.007 0-0.011v0.001c0-5.411 4.407-9.817 9.852-9.78 5.338 0.036 9.709 4.442 9.673 9.78 0.036 5.517-4.442 9.78-9.744 9.78zM2.745 16.611h2.256c0.073 1.504 0.465 2.973 1.148 4.335l-1.935 1.146c-0.86-1.587-1.396-3.464-1.468-5.458l-0.001-0.023zM4.214 9.911l1.969 1.11c-0.65 1.261-1.064 2.74-1.145 4.308l-0.001 0.026h-2.292c0.079-2.005 0.613-3.868 1.502-5.511l-0.033 0.067zM20.98 6.15c-1.261-0.65-2.74-1.064-4.308-1.145l-0.026-0.001v-2.259c2.005 0.079 3.868 0.613 5.511 1.502l-0.067-0.033-1.11 1.935zM15.391 5.004c-1.594 0.082-3.074 0.497-4.396 1.175l0.061-0.028-1.146-1.935c1.577-0.856 3.441-1.391 5.422-1.468l0.024-0.001 0.035 2.257zM29.255 15.357h-2.256c-0.083-1.594-0.497-3.074-1.176-4.396l0.028 0.061 1.971-1.148c0.825 1.594 1.345 3.468 1.432 5.454l0.001 0.028zM26.999 16.611h2.256c-0.083 2.017-0.617 3.892-1.503 5.55l0.034-0.069-1.969-1.11c0.681-1.267 1.111-2.761 1.182-4.349l0.001-0.022zM27.178 8.836l-1.935 1.111c-0.851-1.276-1.913-2.339-3.147-3.164l-0.041-0.026 1.11-1.969c1.612 1.075 2.951 2.425 3.98 3.995l0.033 0.053zM8.835 4.822l1.11 1.971c-1.275 0.851-2.338 1.913-3.163 3.147l-0.026 0.041-1.935-1.146c1.053-1.62 2.394-2.96 3.961-3.982l0.052-0.032zM4.822 23.165l1.971-1.11c0.851 1.275 1.913 2.338 3.147 3.163l0.041 0.026-1.146 1.935c-1.62-1.053-2.96-2.394-3.982-3.961l-0.032-0.052zM23.165 27.178l-1.11-1.935c1.275-0.851 2.338-1.913 3.163-3.147l0.026-0.041 1.935 1.11c-1.053 1.62-2.394 2.96-3.961 3.982l-0.052 0.032z"></path>
</symbol>
<symbol id="icon-svg-gobbler_5" viewBox="0 0 56 32">
<path  d="M3.909 15.565c-0.008 0-0.018 0-0.027 0-0.329 0-0.626-0.137-0.836-0.357l-0-0c-0.215-0.22-0.347-0.521-0.347-0.853 0-0.011 0-0.023 0-0.034l-0 0.002c-0-0.010-0-0.021-0-0.032 0-0.319 0.133-0.606 0.347-0.81l0-0c0.211-0.219 0.507-0.355 0.834-0.355 0.010 0 0.021 0 0.031 0l-0.002-0h7.52c0.006-0 0.014-0 0.021-0 0.368 0 0.702 0.143 0.95 0.377l-0.001-0.001c0.265 0.212 0.433 0.535 0.433 0.897 0 0.013-0 0.025-0.001 0.038l0-0.002c-0.003 0.217-0.050 0.421-0.132 0.607l0.004-0.010-5.683 12.888c-0.012 0.035-0.021 0.057-0.031 0.080l0.004-0.011-0.005 0.008c-0.196 0.454-0.64 0.765-1.156 0.765-0 0-0.001 0-0.001 0h0c-0.002 0-0.005 0-0.008 0-0.366 0-0.698-0.144-0.942-0.379l0 0c-0.24-0.224-0.389-0.541-0.389-0.894 0-0.004 0-0.009 0-0.013v0.001c0-0 0-0 0-0.001 0-0.217 0.048-0.423 0.134-0.608l-0.004 0.009 5.029-11.312h-5.744zM5.456 18.339l-3.288 7.373v0.005c-0.239 0.514-0.379 1.116-0.379 1.75 0 0.002 0 0.003 0 0.005v-0c0 1.147 0.456 2.168 1.237 2.925l0.053 0.053c0.757 0.693 1.712 1.080 2.749 1.080 0.795 0 1.552-0.235 2.213-0.685 0.651-0.454 1.154-1.079 1.449-1.81l0.010-0.027 5.683-12.885c0.208-0.493 0.347-1.064 0.347-1.691 0-0.013 0-0.028 0-0.044 0-1.199-0.535-2.273-1.379-2.997l-0.005-0.004c-0.713-0.642-1.662-1.035-2.702-1.035-0.006 0-0.013 0-0.019 0h-7.514c-1 0-1.976 0.365-2.741 1.136-0.723 0.711-1.171 1.699-1.171 2.792 0 0.014 0 0.028 0 0.042l-0-0.002c0 1.040 0.365 2.056 1.136 2.848 0.771 0.789 1.76 1.165 2.773 1.165h1.547zM41.723 15.565c-0.008 0-0.018 0-0.027 0-0.329 0-0.626-0.137-0.836-0.357l-0-0c-0.215-0.22-0.347-0.521-0.347-0.853 0-0.011 0-0.023 0-0.034l-0 0.002c-0-0.010-0-0.021-0-0.032 0-0.319 0.133-0.606 0.347-0.81l0-0c0.211-0.219 0.507-0.355 0.834-0.355 0.011 0 0.021 0 0.031 0l-0.002-0h7.52c0.006-0 0.014-0 0.021-0 0.368 0 0.702 0.143 0.95 0.377l-0.001-0.001c0.265 0.212 0.433 0.535 0.433 0.897 0 0.013-0 0.025-0.001 0.038l0-0.002c-0.004 0.217-0.052 0.422-0.135 0.607l0.004-0.010-5.68 12.888c-0.012 0.033-0.021 0.056-0.030 0.079l-0.002-0.001c-0.195 0.454-0.638 0.765-1.154 0.765-0.001 0-0.002 0-0.003 0h0c-0.002 0-0.005 0-0.008 0-0.366 0-0.698-0.144-0.942-0.379l0 0c-0.24-0.224-0.389-0.541-0.389-0.894 0-0.004 0-0.009 0-0.013v0.001c0-0.002 0-0.004 0-0.006 0-0.215 0.047-0.419 0.132-0.602l-0.004 0.009 5.035-11.312h-5.747zM43.267 18.339l-3.285 7.381c-0.245 0.547-0.373 1.141-0.373 1.755 0 1.147 0.453 2.168 1.232 2.925l0.053 0.053c0.76 0.693 1.712 1.080 2.752 1.080 0.792 0 1.552-0.235 2.213-0.685 0.651-0.454 1.154-1.079 1.449-1.81l0.010-0.027 5.68-12.888c0.205-0.493 0.347-1.064 0.347-1.691 0-0.012 0-0.027 0-0.041 0-1.2-0.536-2.276-1.382-2.999l-0.005-0.005c-0.713-0.642-1.662-1.035-2.702-1.035-0.005 0-0.011 0-0.016 0h-7.517c-0.008-0-0.018-0-0.029-0-1.063 0-2.024 0.435-2.715 1.136l-0 0c-0.72 0.713-1.166 1.701-1.166 2.794 0 0.014 0 0.029 0 0.043l-0-0.002c0 1.040 0.365 2.056 1.136 2.848 0.771 0.789 1.76 1.165 2.773 1.165h1.544zM34.653 5.952l-9.469 21.477c-0.155 0.429-0.431 0.784-0.785 1.033l-0.007 0.005c-0.328 0.23-0.735 0.368-1.175 0.368-0.005 0-0.010-0-0.015-0h0.001c-0.005 0-0.011 0-0.017 0-0.608 0-1.16-0.239-1.568-0.628l0.001 0.001c-0.399-0.372-0.648-0.902-0.648-1.489 0-0.010 0-0.020 0-0.030l-0 0.002c0-0.347 0.072-0.677 0.213-0.997l8.392-18.853h-9.579c-0.015 0-0.032 0.001-0.049 0.001-0.546 0-1.039-0.227-1.39-0.592l-0.001-0.001c-0.357-0.366-0.577-0.867-0.577-1.419 0-0.021 0-0.043 0.001-0.064l-0 0.003c-0-0.016-0.001-0.035-0.001-0.053 0-0.53 0.221-1.009 0.576-1.349l0.001-0.001c0.351-0.366 0.845-0.593 1.391-0.593 0.017 0 0.035 0 0.052 0.001l-0.003-0h12.533c0.621 0 1.163 0.208 1.619 0.627 0.48 0.395 0.72 0.912 0.72 1.555-0.005 0.362-0.084 0.704-0.223 1.014l0.007-0.016zM35.893 1.285c-0.878-0.797-2.050-1.285-3.336-1.285-0.010 0-0.021 0-0.031 0h-12.526c-1.229 0-2.4 0.445-3.317 1.373-0.865 0.849-1.4 2.030-1.4 3.336 0 0.021 0 0.041 0 0.061l-0-0.003c0 1.28 0.445 2.491 1.368 3.44s2.107 1.403 3.349 1.403h5.376l-6.643 14.928c-0.293 0.633-0.464 1.374-0.464 2.155v0c0 1.381 0.541 2.608 1.493 3.533l0.027 0.027 0.027 0.021c0.941 0.864 2.107 1.336 3.387 1.336 0.965 0 1.883-0.285 2.685-0.835 0.799-0.555 1.414-1.324 1.77-2.223l0.012-0.033 9.464-21.475c0.267-0.629 0.435-1.333 0.435-2.088 0-1.443-0.579-2.744-1.675-3.669z"></path>
</symbol>
<symbol id="icon-svg-gobbler_6" viewBox="0 0 32 32">
<path fill="#96a5b8" style="fill: var(--color1, #96a5b8); stroke: var(--color1, #96a5b8)" stroke="#96a5b8" stroke-linejoin="miter" stroke-linecap="butt" stroke-miterlimit="4" stroke-width="0.48" d="M11 18.755c-0.13 0-0.253 0.034-0.359 0.095l0.004-0.002c-0.109 0.062-0.197 0.15-0.257 0.256l-0.002 0.003c-0.137 0.226-0.292 0.421-0.467 0.595l-0 0c-0.302 0.299-0.707 0.566-1.184 0.57-0.457-0.026-0.864-0.221-1.163-0.523l-0-0c-0.261-0.263-0.423-0.626-0.423-1.026 0-0.026 0.001-0.052 0.002-0.077l-0 0.004v-0.016c0-0.549 0.358-1.296 0.954-2.094 0.586-0.784 1.37-1.574 2.147-2.198 0.203-0.16 0.462-0.256 0.743-0.256 0.002 0 0.004 0 0.006 0h-0c0.278 0 0.544 0.093 0.749 0.256 0.779 0.624 1.562 1.414 2.149 2.2 0.594 0.797 0.952 1.546 0.952 2.094v0.014c0.001 0.022 0.002 0.049 0.002 0.075 0 0.399-0.161 0.761-0.421 1.024l0-0c-0.296 0.304-0.714 0.496-1.165 0.523-0.477-0.003-0.88-0.27-1.184-0.57-0.17-0.171-0.32-0.361-0.447-0.567l-0.008-0.014h-0.002l-0.005-0.011c-0.062-0.111-0.152-0.2-0.259-0.261l-0.003-0.002c-0.102-0.058-0.224-0.093-0.355-0.093-0.001 0-0.002 0-0.004 0h0zM11 18.755v0zM12.646 13.336c-0.445-0.351-1.014-0.563-1.633-0.563-0.005 0-0.010 0-0.014 0h0.001c-0.602 0-1.184 0.198-1.645 0.563-0.662 0.531-1.552 1.368-2.28 2.304-0.717 0.928-1.312 1.997-1.312 2.99-0.032 0.758 0.269 1.494 0.824 2.046s1.322 0.877 2.131 0.909h0.016c0.52-0.011 1.024-0.154 1.462-0.406-0.035 0.181-0.108 0.34-0.209 0.477l0.002-0.003c-0.139 0.176-0.368 0.288-0.808 0.288h-0.909c-0.001 0-0.002 0-0.002 0-0.185 0-0.354 0.070-0.481 0.185l0.001-0.001c-0.129 0.117-0.21 0.285-0.211 0.472v0c0.001 0.187 0.082 0.355 0.211 0.471l0.001 0c0.127 0.115 0.296 0.186 0.481 0.186 0.001 0 0.001 0 0.002 0h5.454c0.179 0 0.352-0.064 0.485-0.186 0.129-0.117 0.209-0.285 0.21-0.472v-0c-0.001-0.187-0.081-0.355-0.209-0.472l-0.001-0c-0.126-0.115-0.295-0.186-0.481-0.186-0.001 0-0.003 0-0.004 0h-0.909c-0.438 0-0.667-0.112-0.808-0.288-0.098-0.133-0.17-0.292-0.204-0.465l-0.001-0.007c0.437 0.253 0.942 0.395 1.462 0.406h0.016c0.808-0.032 1.576-0.357 2.131-0.909s0.854-1.288 0.824-2.048c0-0.992-0.595-2.061-1.312-2.987-0.682-0.859-1.43-1.615-2.253-2.283l-0.027-0.021z"></path>
<path fill="#96a5b8" style="fill: var(--color1, #96a5b8)" d="M27.291 2.618l-7.582-2.328c-0.582-0.184-1.252-0.29-1.947-0.29-2.95 0-5.453 1.911-6.339 4.563l-0.014 0.047-0.251 0.72h-4.491c-3.68 0.005-6.663 2.987-6.667 6.667v13.335c0.005 3.68 2.987 6.663 6.667 6.667h8c2.122-0.007 4.008-1.009 5.218-2.564l0.011-0.015c0.304 0.045 0.611 0.067 0.918 0.070 0.002 0 0.004 0 0.006 0 2.993 0 5.523-1.982 6.35-4.705l0.012-0.047 4.554-13.867c0.167-0.557 0.264-1.197 0.264-1.86 0-2.988-1.958-5.519-4.661-6.38l-0.047-0.013zM14.667 29.331h-8c-2.209 0-4-1.791-4-4v0-13.334c0-2.209 1.791-4 4-4v0h8c2.209 0 4 1.791 4 4v0 13.334c0 2.209-1.791 4-4 4v0zM29.187 10.080l-4.549 13.869c-0.469 1.552-1.817 2.691-3.451 2.844l-0.016 0.001c0.109-0.48 0.165-0.97 0.166-1.462v-13.334c-0.004-3.682-2.987-6.665-6.668-6.669h-0.677c0.567-1.565 2.040-2.663 3.77-2.663 0.415 0 0.816 0.063 1.193 0.181l-0.028-0.008 7.582 2.328c1.65 0.521 2.825 2.038 2.825 3.829 0 0.386-0.055 0.759-0.156 1.113l0.007-0.028z"></path>
</symbol>
<symbol id="icon-svg-gobbler_7" viewBox="0 0 32 32">
<path fill="#96a5b8" style="fill: var(--color1, #96a5b8)" d="M28.25 11.25c-0.691 0-1.25 0.56-1.25 1.25s0.56 1.25 1.25 1.25v0c0.663 0.035 1.188 0.581 1.188 1.25s-0.525 1.215-1.185 1.249l-0.003 0c-0.691 0-1.25 0.56-1.25 1.25s0.56 1.25 1.25 1.25v0c2.071-0.002 3.749-1.68 3.75-3.75v-0c-0.002-2.071-1.68-3.749-3.75-3.75h-0zM21.186 0c-1.122 0.020-2.121 0.53-2.796 1.324l-0.004 0.005-4.842 5.728c-0.23 0.271-0.572 0.442-0.952 0.442-0 0-0.001 0-0.001 0h-7.59c-2.76 0.004-4.996 2.24-5 5v5c0.004 2.76 2.24 4.996 5 5h7.591c0.382 0 0.723 0.171 0.952 0.441l0.002 0.002 4.842 5.728c0.692 0.815 1.718 1.328 2.863 1.328 0 0 0.001 0 0.001 0h-0c2.086 0 3.75-1.739 3.75-3.795v-22.406c0-2.069-1.69-3.832-3.814-3.797zM22.501 26.203c0 0.688-0.56 1.307-1.272 1.296-0.374-0.006-0.708-0.176-0.933-0.441l-0.002-0.002-4.838-5.728c-0.691-0.814-1.715-1.328-2.859-1.328-0.002 0-0.003 0-0.005 0h-7.592c-1.38-0.002-2.497-1.12-2.499-2.499v-5.002c0-1.378 1.12-2.499 2.499-2.499h7.59c0.001 0 0.002 0 0.004 0 1.144 0 2.169-0.513 2.856-1.323l0.004-0.005 4.84-5.728c0.227-0.267 0.56-0.437 0.933-0.443h0.001c0.701-0.013 1.27 0.598 1.27 1.296v22.406z"></path>
<path fill="#96a5b8" style="fill: var(--color1, #96a5b8)" d="M8.75 21c-0 0-0.001 0-0.002 0-0.69 0-1.25 0.559-1.25 1.25v0 6c-0.035 0.663-0.581 1.188-1.25 1.188s-1.215-0.525-1.249-1.185l-0-0.003v-7.093c0-0.69-0.559-1.25-1.25-1.25s-1.25 0.559-1.25 1.25v0 7.093c0.002 2.070 1.679 3.748 3.749 3.75h0c2.071-0.002 3.749-1.68 3.75-3.75v-6c0-0.69-0.559-1.25-1.25-1.25v0zM11.25 12.501c-0.69 0-1.249 0.559-1.25 1.248v2.501c0 0.691 0.56 1.25 1.25 1.25s1.25-0.56 1.25-1.25v0-2.499c0-0.69-0.559-1.25-1.25-1.25-0.001 0-0.001 0-0.002 0h0z"></path>
</symbol>
<symbol xmlns="http://www.w3.org/2000/svg" id="age" viewBox="0 0 34 34"><path fill-rule="evenodd" clip-rule="evenodd" d="M17 32.3c8.201 0 14.85-6.85 14.85-15.3 0-8.45-6.649-15.3-14.85-15.3S2.15 8.55 2.15 17c0 8.45 6.649 15.3 14.85 15.3Zm0 1.7c9.113 0 16.5-7.611 16.5-17S26.113 0 17 0 .5 7.611.5 17 7.887 34 17 34Z"/><path d="M10.332 12.036H8.367c-.023.606-.853 1.638-2.092 1.638v1.668c1.065 0 1.758-.407 1.965-.737h.09v7.36h2.002v-9.93ZM16.228 22.1c2.168 0 3.737-1.197 3.747-2.807-.01-1.241-.933-2.254-2.093-2.453v-.068c1.009-.213 1.725-1.115 1.734-2.2-.009-1.538-1.442-2.672-3.388-2.672-1.96 0-3.392 1.134-3.383 2.671-.01 1.086.707 1.988 1.734 2.201v.068c-1.178.199-2.102 1.212-2.092 2.453-.01 1.61 1.555 2.807 3.741 2.807Zm0-1.542c-.975 0-1.63-.586-1.62-1.43-.01-.858.678-1.478 1.62-1.478.929 0 1.612.62 1.621 1.478-.009.844-.66 1.43-1.62 1.43Zm0-4.436c-.82 0-1.404-.547-1.394-1.333-.01-.77.565-1.309 1.394-1.309.816 0 1.386.538 1.395 1.31-.01.785-.589 1.332-1.395 1.332Zm11.497.078h-2.318v-2.303h-1.579V16.2H21.51v1.6h2.318v2.303h1.579V17.8h2.318v-1.6Z"/></symbol>
</defs>
</svg>
